<svg width="61" height="60" viewBox="0 0 61 60" fill="none" xmlns="http://www.w3.org/2000/svg">
    <path
        d="M45.025 11.175C44.825 11.175 44.625 11.125 44.45 11.025C39.65 8.55 35.5 7.5 30.5 7.5C25.575 7.5 20.875 8.675 16.6 11.025C16 11.35 15.25 11.125 14.9 10.525C14.575 9.925 14.8 9.15 15.4 8.825C20.05 6.25 25.15 5 30.5 5C35.85 5 40.5 6.175 45.6 8.75C46.225 9.125 46.45 9.875 46.125 10.475C45.9 10.925 45.5 11.175 45.025 11.175ZM9.24999 24.3C8.99999 24.3 8.74999 24.225 8.52499 24.075C7.99999 23.675 7.82499 22.9 8.22499 22.325C10.7 18.825 13.85 16.075 17.6 14.15C25.5 10.1 35.5 10.075 43.375 14.125C47.125 16.05 50.275 18.75 52.75 22.25C53.15 22.8 53 23.6 52.45 24C51.875 24.4 51.1 24.275 50.7 23.75C48.45 20.55 45.6 18.075 42.225 16.35C35.05 12.675 25.875 12.675 18.725 16.375C15.325 18.125 12.475 20.625 10.225 23.75C10.025 24.125 9.64999 24.3 9.24999 24.3ZM24.875 54.475C24.55 54.475 24.25 54.35 24 54.1C21.825 51.925 20.65 50.525 18.975 47.5C17.25 44.425 16.35 40.675 16.35 36.65C16.35 29.225 22.7 23.175 30.5 23.175C38.3 23.175 44.65 29.225 44.65 36.65C44.65 36.9815 44.5183 37.2995 44.2839 37.5339C44.0495 37.7683 43.7315 37.9 43.4 37.9C43.0685 37.9 42.7505 37.7683 42.5161 37.5339C42.2817 37.2995 42.15 36.9815 42.15 36.65C42.15 30.6 36.925 25.675 30.5 25.675C24.075 25.675 18.85 30.6 18.85 36.65C18.85 40.25 19.65 43.575 21.175 46.25C22.775 49.15 23.875 50.375 25.8 52.325C26.275 52.825 26.275 53.6 25.8 54.1C25.5 54.35 25.2 54.475 24.875 54.475ZM42.8 49.85C39.825 49.85 37.2 49.1 35.05 47.625C31.325 45.1 29.1 41 29.1 36.65C29.1 36.3185 29.2317 36.0005 29.4661 35.7661C29.7005 35.5317 30.0185 35.4 30.35 35.4C30.6815 35.4 30.9995 35.5317 31.2339 35.7661C31.4683 36.0005 31.6 36.3185 31.6 36.65C31.6 40.175 33.4 43.5 36.45 45.55C38.225 46.75 40.3 47.325 42.8 47.325C43.4 47.325 44.4 47.25 45.4 47.075C46.075 46.95 46.75 47.4 46.85 48.1C46.975 48.75 46.525 49.425 45.825 49.55C44.4 49.825 43.15 49.85 42.8 49.85ZM37.775 55C37.675 55 37.55 55 37.45 55C33.475 53.85 30.875 52.375 28.15 49.7C24.65 46.25 22.725 41.6 22.725 36.65C22.725 32.6 26.175 29.3 30.425 29.3C34.675 29.3 38.125 32.6 38.125 36.65C38.125 39.325 40.5 41.5 43.325 41.5C46.2 41.5 48.525 39.325 48.525 36.65C48.525 27.225 40.4 19.575 30.4 19.575C23.3 19.575 16.75 23.525 13.875 29.65C12.9 31.675 12.4 34.05 12.4 36.65C12.4 38.6 12.575 41.675 14.075 45.675C14.325 46.325 14 47.05 13.35 47.275C12.7 47.5 11.975 47.175 11.75 46.55C10.5 43.275 9.92499 40 9.92499 36.65C9.92499 33.65 10.5 30.925 11.625 28.55C14.95 21.575 22.325 17.05 30.4 17.05C41.75 17.05 51.025 25.825 51.025 36.625C51.025 40.675 47.575 43.975 43.325 43.975C39.075 43.975 35.625 40.675 35.625 36.625C35.625 33.95 33.3 31.775 30.425 31.775C27.55 31.775 25.225 33.95 25.225 36.625C25.225 40.9 26.875 44.9 29.9 47.9C32.275 50.25 34.55 51.55 38.075 52.5C38.75 52.7 39.125 53.4 38.95 54.05C38.825 54.625 38.3 55 37.775 55Z"
        fill="#4335A7" />
</svg>
    