<svg width="25" height="24" viewBox="0 0 25 24" fill="none" xmlns="http://www.w3.org/2000/svg">
<path d="M19.375 8L15.375 12H18.375C18.375 13.5913 17.7429 15.1174 16.6176 16.2426C15.4924 17.3679 13.9663 18 12.375 18C11.375 18 10.405 17.75 9.575 17.3L8.115 18.76C9.345 19.54 10.805 20 12.375 20C14.4967 20 16.5316 19.1571 18.0319 17.6569C19.5321 16.1566 20.375 14.1217 20.375 12H23.375M6.375 12C6.375 10.4087 7.00714 8.88258 8.13236 7.75736C9.25758 6.63214 10.7837 6 12.375 6C13.375 6 14.345 6.25 15.175 6.7L16.635 5.24C15.405 4.46 13.945 4 12.375 4C10.2533 4 8.21844 4.84285 6.71815 6.34315C5.21785 7.84344 4.375 9.87827 4.375 12H1.375L5.375 16L9.375 12" fill="#212123"/>
</svg>
