<svg width="25" height="24" viewBox="0 0 25 24" fill="none" xmlns="http://www.w3.org/2000/svg">
<path d="M16.875 2C14.115 2 11.875 4.24 11.875 7C11.875 9.76 14.115 12 16.875 12C19.635 12 21.875 9.76 21.875 7C21.875 4.24 19.635 2 16.875 2ZM16.875 10C15.215 10 13.875 8.66 13.875 7C13.875 5.34 15.215 4 16.875 4C18.535 4 19.875 5.34 19.875 7C19.875 8.66 18.535 10 16.875 10ZM19.875 16H17.875C17.875 14.8 17.125 13.72 16.005 13.3L9.845 11H1.875V22H7.875V20.56L14.875 22.5L22.875 20V19C22.875 17.34 21.535 16 19.875 16ZM5.875 20H3.875V13H5.875V20ZM14.845 20.41L7.875 18.5V13H9.485L15.305 15.17C15.645 15.3 15.875 15.63 15.875 16C15.875 16 13.875 15.95 13.575 15.85L11.195 15.06L10.565 16.96L12.945 17.75C13.455 17.92 13.985 18 14.525 18H19.875C20.265 18 20.615 18.24 20.775 18.57L14.845 20.41Z" fill="white"/>
</svg>
