<svg width="30" height="30" viewBox="0 0 30 30" fill="none" xmlns="http://www.w3.org/2000/svg">
<path d="M26.05 2.72501L21.1375 3.70001L24.5625 8.12501L27.025 7.62501L26.05 2.72501ZM17.4625 4.42501L15 4.91251L18.4375 9.32501L20.8875 8.83751L17.4625 4.42501ZM11.3375 5.62501L8.87501 6.13751L12.3125 10.55L14.7625 10.0625L11.3375 5.62501ZM5.20001 6.87501L3.97501 7.11251C3.32549 7.24228 2.75401 7.62451 2.38606 8.17526C2.01811 8.72602 1.88376 9.40028 2.01251 10.05L2.50001 12.5L8.62501 11.2875L5.20001 6.87501ZM2.50001 12.5V25C2.50001 26.3875 3.62501 27.5 5.00001 27.5H25C26.3875 27.5 27.5 26.3875 27.5 25V12.5H2.50001Z" fill="#4335A7"/>
</svg>
