<svg width="25" height="24" viewBox="0 0 25 24" fill="none" xmlns="http://www.w3.org/2000/svg">
<path d="M14.925 8L16.125 9.2L9.325 16L8.125 14.8L14.925 8ZM4.125 4H20.125C21.235 4 22.125 4.89 22.125 6V10C21.025 10 20.125 10.9 20.125 12C20.125 13.11 21.025 14 22.125 14V18C22.125 19.11 21.235 20 20.125 20H4.125C3.025 20 2.125 19.11 2.125 18V14C3.235 14 4.125 13.11 4.125 12C4.125 10.9 3.235 10 2.125 10V6C2.125 4.89 3.025 4 4.125 4ZM4.125 6V8.54C5.365 9.26 6.125 10.57 6.125 12C6.125 13.43 5.365 14.75 4.125 15.46V18H20.125V15.46C18.885 14.75 18.125 13.43 18.125 12C18.125 10.57 18.885 9.26 20.125 8.54V6H4.125ZM9.625 8C10.455 8 11.125 8.67 11.125 9.5C11.125 10.33 10.455 11 9.625 11C8.795 11 8.125 10.33 8.125 9.5C8.125 8.67 8.795 8 9.625 8ZM14.625 13C15.455 13 16.125 13.67 16.125 14.5C16.125 15.33 15.455 16 14.625 16C13.795 16 13.125 15.33 13.125 14.5C13.125 13.67 13.795 13 14.625 13Z" fill="white"/>
</svg>
