<svg width="25" height="24" viewBox="0 0 25 24" fill="none" xmlns="http://www.w3.org/2000/svg">
<path d="M12.5 3.77L11.75 4.61C11.75 4.61 10.47 6.06 9.18 7.94C7.89 9.82 6.5 12.07 6.5 14.23C6.5 15.8213 7.13214 17.3474 8.25736 18.4726C9.38258 19.5979 10.9087 20.23 12.5 20.23C14.0913 20.23 15.6174 19.5979 16.7426 18.4726C17.8679 17.3474 18.5 15.8213 18.5 14.23C18.5 12.07 17.11 9.82 15.82 7.94C14.53 6.06 13.25 4.61 13.25 4.61L12.5 3.77ZM12.5 6.9C12.94 7.42 13.34 7.85 14.18 9.07C15.39 10.83 16.5 13.07 16.5 14.23C16.5 16.45 14.72 18.23 12.5 18.23C10.28 18.23 8.5 16.45 8.5 14.23C8.5 13.07 9.61 10.83 10.82 9.07C11.66 7.85 12.06 7.42 12.5 6.9Z" fill="#212123"/>
</svg>
